<svg data-name="Layer 1" xmlns="http://www.w3.org/2000/svg" width="855.3" height="676"><path d="M597 585h-2V366a6 6 0 00-2-5l1-1a8 8 0 013 6zM394 23a18 18 0 011 4l-1-4zm17 61l-1 7z" fill="#3f3d56"/><path d="M594 293a817 817 0 01-106 43c11-3 46-7 99 26 66 41 137 14 137 14s-15 30-49 32-121-53-151-37c-30 15-43-4-55 35-12 40-34 148-9 208l25 61H343s51-137 23-221c-16-48-38-82-47-99-4-9-4-13 1-13l16 5s-35-34-46-34-64-5-81-23c0 0-24-17-68 25s-33 42-72 39a171 171 0 01-69-22c1 0 46 18 73 9 28-9 52-44 76-56s39-28 72-11l-22-51-6-14s-7-96-21-103-5-24-31-27c0 0 32-4 38 18s46 139 46 139 25 50 53 38-10-78-10-78l-48-22s36-1 57 19c22 21 24 87 24 87s54 7 68 37c0 0 8-26-8-42-4-4-9-11-13-19a167 167 0 01-16-101c2-17 4-33 1-37-6-9-31-61-33-75s2-43 2-43 1 36 9 47 30 66 30 66 0 70 18 104 54 73 52 98v15s40-38 37-50c-2-13-6-43-31-60-25-18-41-47-23-87a404 404 0 0016-42l-10 44s-7 46 12 61v1c18 15 42 44 42 44v-1l-5-94 1 3 8 18 8 17s37-47 80-63c44-16 71-72 71-72l37-29-30 37s-10 42-62 73c-52 30-85 75-87 103l-4 52s97-4 119-46c22-43 40-45 40-45l-13 37-14 31s57 2 87 35c29 34 103 44 103 44l-41 11s-40-13-78-38-33-46-80-21z" fill="#3f3d56"/><path d="M615 203a224 224 0 01-16 50c-22 42-119 46-119 46l1-15c25-2 92-11 110-45l5-11zm-152 52s-24-29-43-45c-4-3-7-8-8-13l-1-2 1 1a471 471 0 0143 45l-5-92 8 18zm14-83c0 16-2 26-2 26s37-47 80-63l8-5c52-30 62-73 62-73l30-37-37 29s-27 56-71 72c-29 10-56 36-70 51zm-57 157v15s40-38 37-50c-2-10-4-30-16-46 5 12 7 24 8 31 2 10-18 31-29 43a30 30 0 010 7zm-53-99l1 2c10 18 26 38 37 57-9-19-25-39-38-59zm221 132a191 191 0 00-56-25 999 999 0 01-35 13c12-3 46-7 99 26a160 160 0 00111 20 69 69 0 0018-20s-71 27-137-14zM399 202a65 65 0 010-47 143 143 0 011-20l11-44-17 42c-12 29-8 51 5 69zm292 95c-21-23-55-31-73-33l-6 12s57 2 87 35c16 19 46 30 70 37l25-7s-74-10-103-44zm-404-9c28-12-10-78-10-78l-1-1c9 20 23 57 3 65-18 8-36-12-45-26v2s25 50 53 38zm91 43s8-26-8-41c4 13 0 27 0 27-11-23-46-33-61-36l1 13s54 7 67 37zm33-240l1-7zM82 355c28-9 52-44 76-56s39-28 72-11c0 0-6-23-17-39a154 154 0 019 25c-33-17-48-1-72 11s-48 47-76 56-73-9-73-9 30 19 69 22l12 1zm120-132h-3l-6-14h1s-5-61-13-89c14 7 21 103 21 103zm155 452c12-37 41-139 18-207-10-30-19-49-27-60a340 340 0 0119 46c28 84-23 221-23 221zm-12-314a73 73 0 00-26-6c-4-9-5-14 1-13l4 1c11 8 20 18 20 18zM166 100a17 17 0 003 3 20 20 0 00-3-3zm121 107a32 32 0 012 3c-3-7-6-13-11-17-21-20-57-19-57-19l45 21a64 64 0 0121 12zm47-89c3 4 1 20-1 37a167 167 0 0016 101 117 117 0 007 12 167 167 0 01-15-99c2-16 4-33 1-37-6-8-31-61-33-75a96 96 0 01-1-16c-5-15-5-41-5-41s-4 29-2 43 27 66 33 75zm62-91a19 19 0 00-2-4l2 4zM163 93c6 1 12 3 18 7a150 150 0 01-1-3c-6-22-38-18-38-18 14 2 18 8 21 14z" opacity=".1"/><path d="M785 641c-10 15-8 34-8 34s19-5 29-20 7-34 7-34-19 5-28 20z" fill="#3f3d56"/><path d="M792 644c-1 18-14 32-14 32s-12-15-12-33 15-32 15-32 12 15 11 33z" fill="#f67280"/><path d="M619 530s11-12 16-9-14 13-14 13z" fill="#ffb9b9"/><path d="M619 530s11-12 16-9-14 13-14 13z" opacity=".1"/><path d="M584 504s-4 8-3 16 11 33 15 33 28-19 28-19l-5-7-18 11s-3-39-17-34z" fill="#d0cde1"/><path d="M652 522l-28 16a1 1 0 01-2-1l-7-14a2 2 0 011-3l23-12a1 1 0 012 1l12 11a2 2 0 01-1 2z" fill="#2f2e41"/><path fill="#f67280" d="M650 520l-26 15-8-12 23-13 11 10z"/><ellipse cx="799.8" cy="627.5" rx=".4" ry=".3" transform="rotate(-50 594 756)" fill="#f2f2f2"/><ellipse cx="809.8" cy="640.6" rx=".3" ry=".2" transform="rotate(-50 604 769)" fill="#f2f2f2"/><path d="M584 504s-4 8-3 16 11 33 15 33 28-19 28-19l-5-7-18 11s-3-39-17-34z" opacity=".1"/><path d="M611 532s13-10 17-7-15 11-15 11z" fill="#ffb9b9"/><circle cx="594" cy="478.9" r="12.4" fill="#ffb9b9"/><path d="M637 565s13 2 13 10-11 42-11 42l-1 13s1 22-1 22-9-16-9-16-7-5-4-9 6-4 5-8 0-25 3-31l4-9-9-1z" fill="#ffb9b9"/><path d="M637 565s13 2 13 10-11 42-11 42l-1 13s1 22-1 22-9-16-9-16-7-5-4-9 6-4 5-8 0-25 3-31l4-9-9-1z" opacity=".1"/><path d="M638 567s12 3 14 12l7 33 7 16s11 19 6 19-11-10-13-10-9-2-8-4l3-7-10-18a44 44 0 01-5-11l-2-11c0-3-8-4-8-4z" fill="#ffb9b9"/><path d="M596 540l6 17 16 5c7 2 20-1 21 4s-3 14-7 16-6 5-18 1-42-4-42-4a21 21 0 01-9 3c-6 0-7 1-9-1s1-1 2-4 1-2 5-6 7-16 9-19 4-12 4-12z" fill="#2f2e41"/><path d="M595 489a13 13 0 00-5 10c0 6-13-7-13-7s7-8 7-11 11 8 11 8z" fill="#ffb9b9"/><path d="M579 487s7 3 9 7l8 13s9 10 6 20l-5 14c0 1-5 5-8 5s-16-3-17-4-6-26-3-35a207 207 0 0110-20z" fill="#d0cde1"/><path d="M598 480l7-3 3-4-3-4 1-3a4 4 0 00-3-4l-4-1-6-4-9 1h-6a8 8 0 00-7 8v4a6 6 0 01-1 1 13 13 0 00-5 10l2 5a7 7 0 003 0 3 3 0 012 1l1 5 3-1 2-2c2-2 4-2 6-2a3 3 0 002-1 3 3 0 000-1 9 9 0 000-4 2 2 0 010-1 2 2 0 011-1l5-2 6 3z" fill="#2f2e41"/><path d="M580 502s-5 7-5 15 7 35 10 35 31-15 31-15l-4-7-20 8s3-39-12-36z" fill="#d0cde1"/><path fill="#f67280" d="M540 579h98v19h-98z"/><path d="M589 599a8 8 0 01-8-8V366a8 8 0 0113-6l-1 1a6 6 0 00-10 5v225a6 6 0 006 6zM49 674h806v2H49z" fill="#3f3d56"/><ellipse cx="744.7" cy="583" rx="1" ry="3" transform="rotate(-39 499 772)" fill="#f67280"/><path d="M489 641c-10 15-8 34-8 34s19-5 29-20 7-34 7-34-19 5-28 20z" fill="#3f3d56"/><path d="M496 644c-1 18-14 32-14 32s-12-15-12-33 14-32 14-32 13 15 12 33z" fill="#f67280"/><path d="M327 647c4 17 20 28 20 28s9-17 4-35-20-28-20-28-9 18-4 35z" fill="#3f3d56"/><path d="M334 643c13 13 14 32 14 32s-19-1-32-14-15-32-15-32 20 2 33 14zm-43-471c-1 18-15 32-15 32s-12-16-11-33 15-32 15-32 12 15 11 33zM149 59c15 9 21 28 21 28s-19 3-35-7-20-28-20-28 19-3 34 7zm-34 219c15 9 21 28 21 28s-19 3-35-7-20-28-20-28 19-3 34 7zM425 91c-5 17-21 28-21 28s-9-18-4-35 20-28 20-28 9 17 5 35zm144 13c-5 17-22 27-22 27s-7-17-2-35 22-27 22-27 8 18 2 35zm157 191c-10 15-29 21-29 21s-2-20 8-35 28-20 28-20 3 19-7 34z" fill="#f67280"/></svg>