<?xml version="1.0" standalone="no"?><!DOCTYPE svg PUBLIC "-//W3C//DTD SVG 1.1//EN" "http://www.w3.org/Graphics/SVG/1.1/DTD/svg11.dtd"><svg t="1565183149254" class="icon" viewBox="0 0 1024 1024" version="1.1" xmlns="http://www.w3.org/2000/svg" p-id="1605" xmlns:xlink="http://www.w3.org/1999/xlink" width="200" height="200"><defs><style type="text/css"></style></defs><path d="M476.08 480.08H101c-2.2 0-4-1.8-4-4V101c0-2.2 1.8-4 4-4h375.08c2.2 0 4 1.8 4 4v375.08c0 2.2-1.8 4-4 4zM923 480.08H547.92c-2.2 0-4-1.8-4-4V101c0-2.2 1.8-4 4-4H923c2.2 0 4 1.8 4 4v375.08c0 2.2-1.8 4-4 4zM476.08 927H101c-2.2 0-4-1.8-4-4V547.92c0-2.2 1.8-4 4-4h375.08c2.2 0 4 1.8 4 4V923c0 2.2-1.8 4-4 4zM863.15 576.11c17.46 0 31.67 14.2 31.67 31.66v255.38c0 17.46-14.21 31.66-31.67 31.66H607.77c-17.46 0-31.67-14.2-31.67-31.66V607.77c0-17.46 14.21-31.66 31.67-31.66h255.38m0-32.19H607.77c-35.11 0-63.85 28.73-63.85 63.85v255.38c0 35.11 28.73 63.85 63.85 63.85h255.38c35.11 0 63.85-28.73 63.85-63.85V607.77c0-35.12-28.73-63.85-63.85-63.85z" fill="#f67280" p-id="1606"></path></svg>